<?xml version="1.0" encoding="UTF-8" standalone="no"?>
<!-- Created with Inkscape (http://www.inkscape.org/) -->

<svg
   xmlns:dc="http://purl.org/dc/elements/1.1/"
   xmlns:cc="http://creativecommons.org/ns#"
   xmlns:rdf="http://www.w3.org/1999/02/22-rdf-syntax-ns#"
   xmlns:svg="http://www.w3.org/2000/svg"
   xmlns="http://www.w3.org/2000/svg"
   xmlns:sodipodi="http://sodipodi.sourceforge.net/DTD/sodipodi-0.dtd"
   xmlns:inkscape="http://www.inkscape.org/namespaces/inkscape"
   width="473.254"
   height="49.263"
   viewBox="0 0 125.21512 13.034169"
   version="1.1"
   id="svg6027"
   inkscape:version="0.92.3 (2405546, 2018-03-11)"
   sodipodi:docname="Logo-01.svg">
  <defs
     id="defs6021">
    <clipPath
       id="clipPath4650"
       clipPathUnits="userSpaceOnUse">
      <path
         inkscape:connector-curvature="0"
         id="path4648"
         d="M 0,648 H 864 V 0 H 0 Z" />
    </clipPath>
  </defs>
  <sodipodi:namedview
     id="base"
     pagecolor="#ffffff"
     bordercolor="#666666"
     borderopacity="1.0"
     inkscape:pageopacity="0.0"
     inkscape:pageshadow="2"
     inkscape:zoom="1.4"
     inkscape:cx="282.26386"
     inkscape:cy="173.13709"
     inkscape:document-units="px"
     inkscape:current-layer="layer1"
     showgrid="false"
     units="px"
     inkscape:pagecheckerboard="true"
     inkscape:window-width="1600"
     inkscape:window-height="837"
     inkscape:window-x="-8"
     inkscape:window-y="-8"
     inkscape:window-maximized="1" />
  <metadata
     id="metadata6024">
    <rdf:RDF>
      <cc:Work
         rdf:about="">
        <dc:format>image/svg+xml</dc:format>
        <dc:type
           rdf:resource="http://purl.org/dc/dcmitype/StillImage" />
        <dc:title></dc:title>
      </cc:Work>
    </rdf:RDF>
  </metadata>
  <g
     inkscape:label="Layer 1"
     inkscape:groupmode="layer"
     id="layer1"
     transform="translate(0,-283.96583)">
    <g
       id="g4644"
       transform="matrix(0.35277777,0,0,-0.35277777,-160.54936,328.62785)"
       inkscape:export-xdpi="150"
       inkscape:export-ydpi="150">
      <g
         id="g4646"
         clip-path="url(#clipPath4650)">
        <g
           id="g4652"
           transform="translate(529.1758,89.752)">
          <path
             d="m 0,0 h -8.455 l -3.976,18.319 c -0.448,1.948 -0.952,4.896 -0.952,4.896 h -0.223 c 0,0 -0.504,-2.948 -0.953,-4.896 L -18.534,0 h -8.455 l -7.896,36.849 h 7.615 l 4.032,-22.531 c 0.336,-1.842 0.673,-4.79 0.673,-4.79 h 0.111 c 0,0 0.448,2.948 0.784,4.79 l 4.312,22.531 h 7.727 l 4.312,-22.531 c 0.336,-1.842 0.784,-4.79 0.784,-4.79 h 0.111 c 0,0 0.336,2.948 0.673,4.79 L 0.28,36.849 h 7.616 z"
             style="fill:#2d3f59;fill-opacity:1;fill-rule:nonzero;stroke:none"
             id="path4654"
             inkscape:connector-curvature="0" />
        </g>
        <g
           id="g4656"
           transform="translate(538.4238,89.752)">
          <path
             d="m 0,0 v 36.849 h 20.831 v -6.58 H 7.28 v -9.423 h 11.423 v -6.58 H 7.28 V 6.58 H 20.831 V 0 Z"
             style="fill:#2d3f59;fill-opacity:1;fill-rule:nonzero;stroke:none"
             id="path4658"
             inkscape:connector-curvature="0" />
        </g>
        <g
           id="g4660"
           transform="translate(574.668,113.6514)">
          <path
             d="M 0,0 C -0.224,1 -0.56,3.158 -0.56,3.158 H -0.672 C -0.672,3.158 -1.008,1 -1.231,0 l -2.632,-12.056 h 6.439 z m 5.151,-23.899 -1.288,5.791 h -9.071 l -1.231,-5.791 h -7.616 l 9.295,36.848 h 8.287 l 9.296,-36.848 z"
             style="fill:#2d3f59;fill-opacity:1;fill-rule:nonzero;stroke:none"
             id="path4662"
             inkscape:connector-curvature="0" />
        </g>
        <g
           id="g4664"
           transform="translate(590.5166,89.752)">
          <path
             d="m 0,0 v 30.269 h -6.888 v 6.58 h 21.111 v -6.58 H 7.335 V 0 Z"
             style="fill:#2d3f59;fill-opacity:1;fill-rule:nonzero;stroke:none"
             id="path4666"
             inkscape:connector-curvature="0" />
        </g>
        <g
           id="g4668"
           transform="translate(624.0586,89.752)">
          <path
             d="M 0,0 V 13.845 H -10.079 V 0 h -7.279 v 36.849 h 7.279 V 20.425 H 0 V 36.849 H 7.279 V 0 Z"
             style="fill:#2d3f59;fill-opacity:1;fill-rule:nonzero;stroke:none"
             id="path4670"
             inkscape:connector-curvature="0" />
        </g>
        <g
           id="g4672"
           transform="translate(635.0781,89.752)">
          <path
             d="m 0,0 v 36.849 h 20.83 v -6.58 H 7.279 v -9.423 h 11.423 v -6.58 H 7.279 V 6.58 H 20.83 V 0 Z"
             style="fill:#2d3f59;fill-opacity:1;fill-rule:nonzero;stroke:none"
             id="path4674"
             inkscape:connector-curvature="0" />
        </g>
        <g
           id="g4676"
           transform="translate(669.168,107.6494)">
          <path
             d="m 0,0 c 4.144,0 6.215,2.633 6.215,6.212 0,3.737 -2.127,6.212 -6.271,6.212 H -2.744 V 0 Z M 6.327,-17.897 1.456,-6.527 C 0.896,-6.58 0.336,-6.58 -0.224,-6.58 h -2.52 v -11.317 h -7.279 V 18.951 H 0.84 c 8.903,0 12.598,-6.212 12.598,-12.634 0,-4.053 -1.679,-8.106 -5.262,-10.581 l 5.879,-13.633 z"
             style="fill:#2d3f59;fill-opacity:1;fill-rule:nonzero;stroke:none"
             id="path4678"
             inkscape:connector-curvature="0" />
        </g>
        <g
           id="g4680"
           transform="translate(708.8213,96.2793)">
          <path
             d="m 0,0 c 4.647,0 5.991,2.211 5.991,4.79 0,2.527 -1.4,4.422 -6.047,4.422 H -4.368 V 0 Z m -1.624,15.213 c 4.647,0 5.991,2.159 5.991,4.738 0,2.527 -1.399,3.843 -6.047,3.843 h -2.688 v -8.581 z m -10.023,-21.74 v 36.848 h 10.863 c 8.231,0 12.43,-3.316 12.43,-10.16 0,-3.158 -1.175,-5.895 -3.918,-7.474 v -0.159 c 3.191,-1.421 5.207,-4.369 5.207,-7.738 0,-6.264 -3.92,-11.317 -13.496,-11.317 z"
             style="fill:#2d3f59;fill-opacity:1;fill-rule:nonzero;stroke:none"
             id="path4682"
             inkscape:connector-curvature="0" />
        </g>
        <g
           id="g4684"
           transform="translate(735.0283,107.6494)">
          <path
             d="m 0,0 c 4.144,0 6.216,2.633 6.216,6.212 0,3.737 -2.128,6.212 -6.272,6.212 H -2.744 V 0 Z M 6.327,-17.897 1.456,-6.527 C 0.896,-6.58 0.336,-6.58 -0.224,-6.58 h -2.52 v -11.317 h -7.279 V 18.951 H 0.84 c 8.903,0 12.599,-6.212 12.599,-12.634 0,-4.053 -1.679,-8.106 -5.263,-10.581 l 5.879,-13.633 z"
             style="fill:#2d3f59;fill-opacity:1;fill-rule:nonzero;stroke:none"
             id="path4686"
             inkscape:connector-curvature="0" />
        </g>
        <g
           id="g4688"
           transform="translate(769.6826,108.1777)">
          <path
             d="m 0,0 c 0,7.464 -1.728,12.014 -6.187,12.014 -4.459,0 -6.187,-4.55 -6.187,-12.014 0,-7.465 1.784,-12.015 6.187,-12.015 C -1.783,-12.015 0,-7.465 0,0 m -19.62,0 c 0,9.815 3.233,18.404 13.433,18.404 C 4.014,18.404 7.246,9.815 7.246,0 c 0,-9.816 -3.232,-18.405 -13.433,-18.405 -10.2,0 -13.433,8.589 -13.433,18.405"
             style="fill:#2d3f59;fill-opacity:1;fill-rule:nonzero;stroke:none"
             id="path4690"
             inkscape:connector-curvature="0" />
        </g>
        <g
           id="g4692"
           transform="translate(782.2812,100.6621)">
          <path
             d="m 0,0 c 0.947,-2.71 3.4,-4.499 6.187,-4.499 2.898,0 5.128,1.227 5.128,3.988 0,5.827 -16.109,5.777 -16.109,16.666 0,5.522 4.403,9.765 10.758,9.765 6.354,0 9.977,-3.221 11.872,-7.72 l -6.298,-3.578 c -0.948,2.965 -2.62,4.907 -5.574,4.907 -2.062,0 -3.512,-1.175 -3.512,-3.169 0,-6.339 16.11,-5.061 16.11,-16.871 0,-6.34 -5.129,-10.379 -12.375,-10.379 -6.02,0 -10.423,2.864 -12.374,7.055 z"
             style="fill:#2d3f59;fill-opacity:1;fill-rule:nonzero;stroke:none"
             id="path4694"
             inkscape:connector-curvature="0" />
        </g>
        <g
           id="g4696"
           transform="translate(801.29,93.8115)">
          <path
             d="M 0,0 C 0,2.198 2.007,3.987 4.403,3.987 6.8,3.987 8.751,2.198 8.751,0 8.751,-2.199 6.8,-4.039 4.403,-4.039 2.007,-4.039 0,-2.199 0,0"
             style="fill:#2d3f59;fill-opacity:1;fill-rule:nonzero;stroke:none"
             id="path4698"
             inkscape:connector-curvature="0" />
        </g>
        <g
           id="g4700"
           transform="translate(455.1084,121.5146)">
          <path
             d="M 0,0 V 4.954 C 0.053,4.996 0.106,5.039 0.16,5.082 H 36.593 C 36.65,5.039 36.698,4.99 36.704,4.913 36.703,4.892 36.7,4.87 36.7,4.85 c 0,-1.61 10e-4,-3.218 10e-4,-4.827 -0.016,-0.1 -0.08,-0.144 -0.179,-0.145 -0.047,-0.001 -0.095,-0.001 -0.143,-0.001 -12.007,0 -24.015,0.001 -36.022,-0.003 C 0.217,-0.126 0.098,-0.103 0,0"
             style="fill:#2e3f59;fill-opacity:1;fill-rule:nonzero;stroke:none"
             id="path4702"
             inkscape:connector-curvature="0" />
        </g>
        <g
           id="g4704"
           transform="translate(491.8125,115.9365)">
          <path
             d="m 0,0 c -0.017,-0.118 -0.093,-0.159 -0.202,-0.158 -0.059,0.001 -0.117,0 -0.177,0 h -35.886 c -0.264,0 -0.264,0 -0.438,0.111 v 4.954 c 0.093,0.111 0.21,0.133 0.352,0.133 12.01,-0.003 24.02,-0.003 36.03,-0.003 0.043,0 0.085,-0.001 0.128,0 0.105,0.002 0.172,-0.044 0.189,-0.152 C -0.005,4.864 -0.007,4.843 -0.007,4.821 V 0.127 C -0.007,0.085 -0.002,0.042 0,0"
             style="fill:#2e3f59;fill-opacity:1;fill-rule:nonzero;stroke:none"
             id="path4706"
             inkscape:connector-curvature="0" />
        </g>
        <g
           id="g4708"
           transform="translate(470.0889,115.2178)">
          <path
             d="m 0,0 h 17.705 c 0.005,-0.02 0.015,-0.039 0.015,-0.058 -0.003,-0.357 0.007,-0.713 -0.013,-1.07 -0.043,-0.809 -0.103,-1.617 -0.208,-2.423 -0.177,-1.345 -0.459,-2.666 -0.868,-3.96 -0.326,-1.031 -0.731,-2.03 -1.218,-2.995 -0.379,-0.751 -0.794,-1.481 -1.283,-2.169 -0.658,-0.926 -1.468,-1.693 -2.41,-2.324 -0.544,-0.363 -1.095,-0.717 -1.636,-1.085 -0.956,-0.65 -1.809,-1.417 -2.54,-2.313 -0.454,-0.557 -0.729,-1.191 -0.799,-1.913 -0.065,-0.673 0.044,-1.323 0.243,-1.961 0.251,-0.805 0.632,-1.554 1.023,-2.298 0.148,-0.283 0.296,-0.566 0.443,-0.849 0.021,-0.041 0.037,-0.084 0.065,-0.145 H 8.378 c -0.554,0 -1.107,10e-4 -1.661,-0.001 -0.085,-0.001 -0.154,0.016 -0.216,0.078 -0.812,0.802 -1.567,1.651 -2.143,2.646 -0.414,0.716 -0.708,1.476 -0.823,2.296 -0.077,0.555 -0.068,1.111 0.009,1.668 0.135,0.97 0.45,1.888 0.797,2.797 0.348,0.913 0.705,1.824 1.043,2.741 0.284,0.774 0.504,1.567 0.654,2.378 0.049,0.26 0.056,0.527 0.081,0.791 0.009,0.095 0.021,0.19 0.021,0.285 C 6.139,-8.981 6.007,-8.097 5.751,-7.231 5.244,-5.519 4.396,-3.99 3.239,-2.632 2.518,-1.783 1.699,-1.043 0.756,-0.448 0.518,-0.298 0.272,-0.161 0,0"
             style="fill:#2e3f59;fill-opacity:1;fill-rule:nonzero;stroke:none"
             id="path4710"
             inkscape:connector-curvature="0" />
        </g>
        <g
           id="g4712"
           transform="translate(491.8174,111.4785)">
          <path
             d="m 0,0 c -0.054,-0.046 -0.113,-0.067 -0.187,-0.067 -1.173,0.002 -2.346,0.001 -3.52,0.002 -0.025,0 -0.052,0.003 -0.096,0.006 0.171,1.267 0.249,2.535 0.256,3.82 0.054,0.005 0.099,0.012 0.145,0.012 1.066,10e-4 2.132,0 3.199,0.002 0.079,0 0.145,-0.015 0.203,-0.067 z"
             style="fill:#ea5756;fill-opacity:1;fill-rule:nonzero;stroke:none"
             id="path4714"
             inkscape:connector-curvature="0" />
        </g>
        <g
           id="g4716"
           transform="translate(473.6416,111.4199)">
          <path
             d="m 0,0 c -0.07,-0.003 -0.121,-0.007 -0.173,-0.007 -6.032,-0.001 -12.065,-0.001 -18.098,-0.001 -0.037,0 -0.075,-0.002 -0.112,0.001 -0.092,0.01 -0.131,0.048 -0.141,0.142 -0.004,0.037 -0.002,0.074 -0.002,0.111 v 3.339 c 0,0.027 -0.001,0.054 0.001,0.08 0.007,0.122 0.045,0.16 0.165,0.167 0.048,0.002 0.096,0.001 0.144,0.001 4.385,0 8.77,-0.001 13.154,0.002 0.174,0 0.335,-0.034 0.497,-0.097 C -3.729,3.413 -2.966,2.963 -2.263,2.409 -1.417,1.743 -0.687,0.966 -0.056,0.094 -0.038,0.069 -0.025,0.042 0,0"
             style="fill:#ea5756;fill-opacity:1;fill-rule:nonzero;stroke:none"
             id="path4718"
             inkscape:connector-curvature="0" />
        </g>
        <g
           id="g4720"
           transform="translate(491.8145,107.0039)">
          <path
             d="m 0,0 c -0.041,-0.069 -0.098,-0.1 -0.183,-0.1 -1.541,0.002 -3.081,0.002 -4.621,0.002 -0.015,0 -0.031,0.006 -0.056,0.011 0.168,0.568 0.348,1.132 0.499,1.703 0.15,0.569 0.269,1.145 0.404,1.727 0.039,0.002 0.081,0.008 0.122,0.008 1.205,10e-4 2.409,0 3.614,0.002 0.09,0 0.169,-0.01 0.221,-0.093 z"
             style="fill:#ea5756;fill-opacity:1;fill-rule:nonzero;stroke:none"
             id="path4722"
             inkscape:connector-curvature="0" />
        </g>
        <g
           id="g4724"
           transform="translate(475.6104,106.9063)">
          <path
             d="m 0,0 h -0.188 -20.023 c -0.277,0 -0.292,0.014 -0.292,0.285 v 2.876 0.065 c 0.003,0.187 0.038,0.222 0.227,0.222 1.381,10e-4 13.898,10e-4 18.774,10e-4 0.032,0 0.065,-0.004 0.096,0 0.093,0.014 0.146,-0.027 0.19,-0.107 0.294,-0.538 0.553,-1.092 0.767,-1.667 0.18,-0.488 0.328,-0.988 0.431,-1.5 C -0.011,0.139 -0.003,0.103 0.003,0.066 0.005,0.051 0.002,0.034 0,0"
             style="fill:#ea5756;fill-opacity:1;fill-rule:nonzero;stroke:none"
             id="path4726"
             inkscape:connector-curvature="0" />
        </g>
        <g
           id="g4728"
           transform="translate(491.8193,102.6572)">
          <path
             d="m 0,0 c -0.039,-0.046 -0.084,-0.079 -0.15,-0.072 -0.037,0.004 -0.075,0.001 -0.112,0.001 h -6.531 -0.206 c 0.088,0.179 0.199,0.32 0.287,0.473 0.089,0.158 0.186,0.31 0.276,0.467 0.09,0.157 0.177,0.316 0.263,0.475 0.086,0.159 0.171,0.319 0.253,0.48 0.082,0.162 0.16,0.324 0.238,0.489 0.078,0.163 0.152,0.327 0.23,0.496 0.05,0.003 0.097,0.008 0.143,0.008 1.698,0 3.394,0 5.091,10e-4 0.082,0 0.159,-0.002 0.218,-0.069 z"
             style="fill:#ee7b3c;fill-opacity:1;fill-rule:nonzero;stroke:none"
             id="path4730"
             inkscape:connector-curvature="0" />
        </g>
        <g
           id="g4732"
           transform="translate(475.7715,105.4746)">
          <path
             d="m 0,0 c 0.016,-1.015 -0.26,-1.945 -0.542,-2.889 h -0.182 -19.671 c -0.031,0 -0.063,-0.002 -0.095,0 -0.121,0.007 -0.158,0.045 -0.165,0.167 -0.002,0.037 -10e-4,0.076 -10e-4,0.113 0,0.777 0,1.554 10e-4,2.332 0,0.048 -0.002,0.096 0.002,0.143 0.007,0.08 0.053,0.126 0.134,0.132 0.042,0.003 0.085,0.002 0.128,0.002 h 20.199 z"
             style="fill:#ee7b3c;fill-opacity:1;fill-rule:nonzero;stroke:none"
             id="path4734"
             inkscape:connector-curvature="0" />
        </g>
        <g
           id="g4736"
           transform="translate(491.8076,98.3428)">
          <path
             d="m 0,0 c -0.06,-0.069 -0.112,-0.077 -0.225,-0.089 -0.031,0.004 -0.063,0.001 -0.095,0.001 h -11.503 -0.221 c 0.042,0.045 0.061,0.074 0.087,0.092 0.544,0.374 1.086,0.752 1.636,1.117 0.483,0.322 0.968,0.641 1.416,1.013 0.079,0.065 0.16,0.093 0.261,0.092 2.8,-10e-4 5.6,-10e-4 8.4,10e-4 0.095,0 0.175,-0.021 0.244,-0.085 z"
             style="fill:#ee7b3c;fill-opacity:1;fill-rule:nonzero;stroke:none"
             id="path4738"
             inkscape:connector-curvature="0" />
        </g>
        <g
           id="g4740"
           transform="translate(455.1006,98.3838)">
          <path
             d="m 0,0 c 0,0.686 0.001,1.371 0.001,2.057 0.034,0.092 0.105,0.128 0.2,0.127 h 0.128 18.833 0.215 C 19.355,2.112 19.343,2.058 19.323,2.007 19.136,1.521 18.944,1.035 18.759,0.549 18.688,0.365 18.622,0.18 18.564,-0.009 c -0.029,-0.094 -0.079,-0.132 -0.173,-0.12 -0.027,0.003 -0.054,0 -0.08,0 H 0.31 c -0.033,0 -0.065,0.002 -0.096,0 C 0.111,-0.137 0.037,-0.098 0,0"
             style="fill:#ee7b3c;fill-opacity:1;fill-rule:nonzero;stroke:none"
             id="path4742"
             inkscape:connector-curvature="0" />
        </g>
        <g
           id="g4744"
           transform="translate(455.1045,95.7539)">
          <path
             d="M 0,0 C 0.081,0.113 0.252,0.092 0.393,0.092 6.202,0.09 12.012,0.09 17.82,0.09 h 0.223 c -0.036,-0.649 0.025,-1.268 0.17,-1.89 -0.055,-0.008 -0.089,-0.015 -0.124,-0.017 -0.037,-0.003 -0.075,-0.001 -0.112,-0.001 -5.878,0 -11.757,0 -17.636,-0.002 -0.126,0 -0.268,-0.008 -0.341,0.094 z"
             style="fill:#fdd35e;fill-opacity:1;fill-rule:nonzero;stroke:none"
             id="path4746"
             inkscape:connector-curvature="0" />
        </g>
        <g
           id="g4748"
           transform="translate(484.5273,93.9355)">
          <path
             d="m 0,0 h -6.984 c -0.043,0 -0.086,0.002 -0.128,0 -0.071,-0.003 -0.107,0.025 -0.117,0.099 -0.083,0.587 -0.012,1.154 0.207,1.704 0.029,0.073 0.072,0.115 0.155,0.106 0.032,-0.004 0.064,-0.001 0.096,-0.001 h 13.73 c 0.31,0 0.312,-0.002 0.312,-0.311 V 0.255 C 7.27,0.015 7.255,0 7.018,0 Z"
             style="fill:#fdd35e;fill-opacity:1;fill-rule:nonzero;stroke:none"
             id="path4750"
             inkscape:connector-curvature="0" />
        </g>
        <g
           id="g4752"
           transform="translate(491.8203,89.7451)">
          <path
             d="m 0,0 c -0.045,-0.06 -0.108,-0.083 -0.18,-0.086 -0.053,-0.003 -0.107,-0.002 -0.16,-0.002 h -12.137 c -0.043,0 -0.085,0.002 -0.127,0 -0.074,-0.003 -0.117,0.031 -0.151,0.096 -0.22,0.426 -0.443,0.849 -0.664,1.274 -0.017,0.031 -0.043,0.077 -0.06,0.123 0.047,0.007 0.1,0.003 0.135,0.006 0.027,0.003 0.053,10e-4 0.08,10e-4 h 13.033 c 0.084,0 0.173,0.017 0.231,-0.069 z"
             style="fill:#fdd35e;fill-opacity:1;fill-rule:nonzero;stroke:none"
             id="path4754"
             inkscape:connector-curvature="0" />
        </g>
        <g
           id="g4756"
           transform="translate(475.9473,89.6572)">
          <path
             d="m 0,0 h -0.155 -20.387 c -0.026,0 -0.054,-0.001 -0.08,0.001 -0.177,0.009 -0.216,0.047 -0.217,0.22 -0.001,0.362 -0.001,0.724 0,1.087 10e-4,0.168 0.026,0.189 0.198,0.192 h 0.113 c 6.352,0 12.705,-10e-4 19.057,0.005 0.171,0 0.267,-0.059 0.369,-0.185 C -0.829,0.986 -0.54,0.667 -0.257,0.342 -0.167,0.238 -0.073,0.138 0.019,0.035 0.012,0.023 0.006,0.012 0,0"
             style="fill:#fdd35e;fill-opacity:1;fill-rule:nonzero;stroke:none"
             id="path4758"
             inkscape:connector-curvature="0" />
        </g>
      </g>
    </g>
  </g>
</svg>
