<?xml version="1.0" standalone="no"?>
<!DOCTYPE svg PUBLIC "-//W3C//DTD SVG 20010904//EN"
 "http://www.w3.org/TR/2001/REC-SVG-20010904/DTD/svg10.dtd">
<svg version="1.0" xmlns="http://www.w3.org/2000/svg"
 width="315.000000pt" height="315.000000pt" viewBox="0 0 315.000000 315.000000"
 preserveAspectRatio="xMidYMid meet">
<metadata>
Created by potrace 1.11, written by Peter Selinger 2001-2013
</metadata>
<g transform="translate(0.000000,315.000000) scale(0.100000,-0.100000)"
fill="#000000" stroke="none">
<path d="M17 3143 c-4 -3 -7 -102 -7 -220 l0 -213 23 -1 c67 -3 3066 -4 3085
0 l22 3 -2 217 -3 216 -1556 3 c-855 1 -1559 -1 -1562 -5z"/>
<path d="M17 2663 c-4 -3 -7 -102 -7 -220 l0 -213 53 -1 c62 -1 3010 -1 3050
0 l27 1 -2 218 -3 217 -1556 3 c-855 1 -1559 -1 -1562 -5z"/>
<path d="M53 2182 l-43 -3 0 -160 c0 -87 3 -159 8 -160 4 -1 359 -2 789 -3
709 -1 780 0 773 15 -11 20 -99 119 -125 140 -11 9 -31 27 -45 39 -38 34 -125
88 -178 111 -45 20 -66 21 -592 22 -300 1 -564 1 -587 -1z"/>
<path d="M1314 2167 c248 -156 422 -400 480 -673 32 -153 15 -275 -71 -509
-124 -337 -142 -406 -136 -514 8 -143 80 -285 217 -424 l46 -47 80 0 c44 0 80
2 80 5 0 2 -22 48 -50 102 -73 143 -95 213 -95 308 0 64 5 90 24 130 37 75
175 207 321 305 208 140 295 238 400 454 111 229 170 474 185 774 l6 102 -753
-1 c-587 0 -749 -3 -734 -12z"/>
<path d="M2839 2173 c0 -5 -2 -37 -3 -73 -2 -36 -7 -106 -11 -155 l-7 -90 149
1 c81 1 154 2 161 3 9 1 12 40 12 161 l0 160 -150 0 c-82 0 -150 -3 -151 -7z"/>
<path d="M19 1759 c-6 -3 -8 -64 -7 -145 l3 -139 872 -2 872 -1 -6 31 c-6 34
-77 222 -93 247 -8 13 -113 15 -820 15 -447 0 -816 -2 -821 -6z"/>
<path d="M2799 1742 c-5 -13 -9 -28 -9 -33 0 -6 -12 -51 -26 -102 -14 -51 -28
-102 -30 -114 l-4 -22 202 2 203 2 3 143 c2 109 0 142 -10 143 -7 1 -82 2
-167 3 -152 2 -153 1 -162 -22z"/>
<path d="M14 1337 c-2 -7 -3 -62 -2 -123 l3 -109 855 0 854 0 18 58 c10 32 21
87 24 123 l7 64 -877 0 c-715 0 -878 -2 -882 -13z"/>
<path d="M2655 1308 c-10 -24 -38 -78 -62 -120 -23 -43 -43 -79 -43 -81 0 -3
132 -4 293 -3 l292 1 3 123 3 122 -234 0 -233 0 -19 -42z"/>
<path d="M10 835 c0 -52 3 -96 8 -97 4 0 357 -2 785 -3 549 -1 780 2 785 9 7
9 33 75 68 169 6 16 -37 17 -820 17 l-826 0 0 -95z"/>
<path d="M2356 906 c-15 -13 -75 -54 -131 -92 -57 -38 -101 -72 -99 -75 2 -3
230 -5 506 -5 l503 1 0 95 0 95 -375 2 -375 2 -29 -23z"/>
<path d="M16 522 c-9 -8 -7 -152 2 -153 4 -1 352 -2 775 -3 l767 -1 -4 35 c-3
19 -5 56 -5 81 l-1 47 -764 0 c-421 0 -767 -3 -770 -6z"/>
<path d="M1919 514 c-6 -8 -12 -44 -13 -81 l-1 -68 605 0 c333 -1 610 1 616 3
8 2 11 31 10 80 l-1 77 -602 2 c-503 1 -604 -1 -614 -13z"/>
<path d="M14 115 c-3 -7 -4 -34 -2 -61 l3 -49 890 -2 c490 -1 886 1 880 5 -5
4 -32 33 -58 65 l-49 57 -830 -1 c-663 -1 -830 -4 -834 -14z"/>
<path d="M2000 116 c0 -6 13 -33 28 -61 l27 -50 543 -3 542 -2 0 64 0 63 -570
0 c-414 0 -570 -3 -570 -11z"/>
</g>
</svg>
