<?xml version="1.0" encoding="UTF-8" standalone="no"?>
<!-- Created with Inkscape (http://www.inkscape.org/) -->

<svg
   xmlns:dc="http://purl.org/dc/elements/1.1/"
   xmlns:cc="http://creativecommons.org/ns#"
   xmlns:rdf="http://www.w3.org/1999/02/22-rdf-syntax-ns#"
   xmlns:svg="http://www.w3.org/2000/svg"
   xmlns="http://www.w3.org/2000/svg"
   xmlns:sodipodi="http://sodipodi.sourceforge.net/DTD/sodipodi-0.dtd"
   xmlns:inkscape="http://www.inkscape.org/namespaces/inkscape"
   width="400.33701"
   height="116.183"
   viewBox="0 0 105.9225 30.740086"
   version="1.1"
   id="svg6830"
   inkscape:version="0.92.3 (2405546, 2018-03-11)"
   sodipodi:docname="logo-02.svg">
  <defs
     id="defs6824">
    <clipPath
       id="clipPath4534"
       clipPathUnits="userSpaceOnUse">
      <path
         inkscape:connector-curvature="0"
         id="path4532"
         d="M 0,648 H 864 V 0 H 0 Z" />
    </clipPath>
  </defs>
  <sodipodi:namedview
     id="base"
     pagecolor="#ffffff"
     bordercolor="#666666"
     borderopacity="1.0"
     inkscape:pageopacity="0.0"
     inkscape:pageshadow="2"
     inkscape:zoom="0.35"
     inkscape:cx="-75.714286"
     inkscape:cy="560"
     inkscape:document-units="px"
     inkscape:current-layer="layer1"
     showgrid="false"
     units="px"
     inkscape:pagecheckerboard="true"
     inkscape:window-width="1600"
     inkscape:window-height="837"
     inkscape:window-x="-8"
     inkscape:window-y="-8"
     inkscape:window-maximized="1" />
  <metadata
     id="metadata6827">
    <rdf:RDF>
      <cc:Work
         rdf:about="">
        <dc:format>image/svg+xml</dc:format>
        <dc:type
           rdf:resource="http://purl.org/dc/dcmitype/StillImage" />
        <dc:title></dc:title>
      </cc:Work>
    </rdf:RDF>
  </metadata>
  <g
     inkscape:label="Layer 1"
     inkscape:groupmode="layer"
     id="layer1"
     transform="translate(0,-266.2599)">
    <g
       id="g4528"
       transform="matrix(0.35277777,0,0,-0.35277777,-26.121947,317.60853)"
       inkscape:export-xdpi="150"
       inkscape:export-ydpi="150">
      <g
         id="g4530"
         clip-path="url(#clipPath4534)">
        <g
           id="g4536"
           transform="translate(201.5576,103.4297)">
          <path
             d="m 0,0 h -9.601 l -4.513,20.799 c -0.509,2.211 -1.081,5.557 -1.081,5.557 h -0.255 c 0,0 -0.571,-3.346 -1.08,-5.557 L -21.044,0 h -9.601 l -8.964,41.836 h 8.647 l 4.577,-25.579 c 0.382,-2.093 0.763,-5.44 0.763,-5.44 h 0.127 c 0,0 0.509,3.347 0.891,5.44 l 4.895,25.579 h 8.773 L -6.04,16.257 c 0.381,-2.093 0.89,-5.44 0.89,-5.44 h 0.127 c 0,0 0.382,3.347 0.763,5.44 l 4.578,25.579 h 8.646 z"
             style="fill:#2d3f59;fill-opacity:1;fill-rule:nonzero;stroke:none"
             id="path4538"
             inkscape:connector-curvature="0" />
        </g>
        <g
           id="g4540"
           transform="translate(211.9307,103.4297)">
          <path
             d="M 0,0 V 41.836 H 23.65 V 34.365 H 8.265 V 23.667 h 12.97 V 16.196 H 8.265 V 7.471 H 23.65 V 0 Z"
             style="fill:#2d3f59;fill-opacity:1;fill-rule:nonzero;stroke:none"
             id="path4542"
             inkscape:connector-curvature="0" />
        </g>
        <g
           id="g4544"
           transform="translate(252.8311,130.5635)">
          <path
             d="m 0,0 c -0.254,1.136 -0.636,3.586 -0.636,3.586 h -0.127 c 0,0 -0.382,-2.45 -0.635,-3.586 l -2.989,-13.687 h 7.311 z m 5.849,-27.134 -1.462,6.574 h -10.3 l -1.399,-6.574 h -8.646 l 10.554,41.836 h 9.409 l 10.554,-41.836 z"
             style="fill:#2d3f59;fill-opacity:1;fill-rule:nonzero;stroke:none"
             id="path4546"
             inkscape:connector-curvature="0" />
        </g>
        <g
           id="g4548"
           transform="translate(269.9136,103.4297)">
          <path
             d="m 0,0 v 34.365 h -7.82 v 7.471 H 16.148 V 34.365 H 8.329 V 0 Z"
             style="fill:#2d3f59;fill-opacity:1;fill-rule:nonzero;stroke:none"
             id="path4550"
             inkscape:connector-curvature="0" />
        </g>
        <g
           id="g4552"
           transform="translate(307.9961,103.4297)">
          <path
             d="M 0,0 V 15.719 H -11.444 V 0 h -8.265 v 41.836 h 8.265 V 23.189 H 0 V 41.836 H 8.265 V 0 Z"
             style="fill:#2d3f59;fill-opacity:1;fill-rule:nonzero;stroke:none"
             id="path4554"
             inkscape:connector-curvature="0" />
        </g>
        <g
           id="g4556"
           transform="translate(319.8442,103.4297)">
          <path
             d="M 0,0 V 41.836 H 23.651 V 34.365 H 8.265 V 23.667 h 12.97 V 16.196 H 8.265 V 7.471 H 23.651 V 0 Z"
             style="fill:#2d3f59;fill-opacity:1;fill-rule:nonzero;stroke:none"
             id="path4558"
             inkscape:connector-curvature="0" />
        </g>
        <g
           id="g4560"
           transform="translate(358.3413,123.75)">
          <path
             d="m 0,0 c 4.705,0 7.057,2.988 7.057,7.053 0,4.243 -2.416,7.051 -7.12,7.051 H -3.115 V 0 Z M 7.185,-20.32 1.653,-7.411 c -0.635,-0.06 -1.272,-0.06 -1.907,-0.06 H -3.115 V -20.32 H -11.38 V 21.516 H 0.954 c 10.109,0 14.304,-7.052 14.304,-14.344 0,-4.602 -1.906,-9.204 -5.975,-12.013 l 6.675,-15.479 z"
             style="fill:#2d3f59;fill-opacity:1;fill-rule:nonzero;stroke:none"
             id="path4562"
             inkscape:connector-curvature="0" />
        </g>
        <g
           id="g4564"
           transform="translate(179.623,65.8818)">
          <path
             d="m 0,0 c 5.277,0 6.803,2.511 6.803,5.439 0,2.869 -1.59,5.02 -6.866,5.02 H -4.959 V 0 Z m -1.844,17.272 c 5.278,0 6.803,2.451 6.803,5.379 0,2.87 -1.589,4.364 -6.866,4.364 H -4.959 V 17.272 Z M -13.224,-7.411 V 34.426 H -0.89 c 9.346,0 14.114,-3.766 14.114,-11.535 0,-3.586 -1.335,-6.694 -4.45,-8.487 v -0.179 c 3.624,-1.614 5.913,-4.961 5.913,-8.786 0,-7.112 -4.451,-12.85 -15.323,-12.85 z"
             style="fill:#2d3f59;fill-opacity:1;fill-rule:nonzero;stroke:none"
             id="path4566"
             inkscape:connector-curvature="0" />
        </g>
        <g
           id="g4568"
           transform="translate(208.9219,78.792)">
          <path
             d="m 0,0 c 4.705,0 7.057,2.988 7.057,7.052 0,4.244 -2.416,7.052 -7.121,7.052 H -3.115 V 0 Z m 7.184,-20.321 -5.531,12.91 c -0.636,-0.06 -1.272,-0.06 -1.907,-0.06 h -2.861 v -12.85 H -11.38 V 21.516 H 0.954 c 10.109,0 14.304,-7.053 14.304,-14.344 0,-4.603 -1.907,-9.204 -5.976,-12.013 l 6.676,-15.48 z"
             style="fill:#2d3f59;fill-opacity:1;fill-rule:nonzero;stroke:none"
             id="path4570"
             inkscape:connector-curvature="0" />
        </g>
        <g
           id="g4572"
           transform="translate(248.3384,79.8232)">
          <path
             d="m 0,0 c 0,8.655 -1.955,13.933 -7.001,13.933 -5.046,0 -7.001,-5.278 -7.001,-13.933 0,-8.657 2.019,-13.934 7.001,-13.934 C -2.019,-13.934 0,-8.657 0,0 m -22.202,0 c 0,11.383 3.659,21.344 15.201,21.344 11.542,0 15.2,-9.961 15.2,-21.344 0,-11.384 -3.658,-21.345 -15.2,-21.345 -11.542,0 -15.201,9.961 -15.201,21.345"
             style="fill:#2d3f59;fill-opacity:1;fill-rule:nonzero;stroke:none"
             id="path4574"
             inkscape:connector-curvature="0" />
        </g>
        <g
           id="g4576"
           transform="translate(262.5923,71.1074)">
          <path
             d="m 0,0 c 1.072,-3.143 3.847,-5.218 7,-5.218 3.28,0 5.803,1.423 5.803,4.625 0,6.759 -18.227,6.699 -18.227,19.328 0,6.404 4.983,11.325 12.173,11.325 7.189,0 11.289,-3.736 13.433,-8.953 l -7.127,-4.15 c -1.072,3.439 -2.964,5.691 -6.306,5.691 -2.334,0 -3.974,-1.363 -3.974,-3.675 0,-7.353 18.227,-5.87 18.227,-19.566 0,-7.352 -5.802,-12.036 -14.002,-12.036 -6.811,0 -11.793,3.32 -14.001,8.182 z"
             style="fill:#2d3f59;fill-opacity:1;fill-rule:nonzero;stroke:none"
             id="path4578"
             inkscape:connector-curvature="0" />
        </g>
        <g
           id="g4580"
           transform="translate(284.0991,63.1621)">
          <path
             d="M 0,0 C 0,2.55 2.271,4.625 4.982,4.625 7.695,4.625 9.902,2.55 9.902,0 9.902,-2.549 7.695,-4.684 4.982,-4.684 2.271,-4.684 0,-2.549 0,0"
             style="fill:#2d3f59;fill-opacity:1;fill-rule:nonzero;stroke:none"
             id="path4582"
             inkscape:connector-curvature="0" />
        </g>
        <g
           id="g4584"
           transform="translate(74.0649,133.5693)">
          <path
             d="m 0,0 v 11.685 c 0.126,0.1 0.251,0.201 0.377,0.301 h 85.935 c 0.135,-0.101 0.25,-0.215 0.262,-0.398 -0.003,-0.05 -0.01,-0.1 -0.01,-0.15 0.001,-3.794 0.002,-7.588 0.003,-11.383 -0.04,-0.238 -0.189,-0.341 -0.421,-0.344 -0.112,-0.001 -0.226,0 -0.339,0 -28.321,0 -56.642,0 -84.964,-0.007 C 0.511,-0.296 0.231,-0.242 0,0"
             style="fill:#2e3f59;fill-opacity:1;fill-rule:nonzero;stroke:none"
             id="path4586"
             inkscape:connector-curvature="0" />
        </g>
        <g
           id="g4588"
           transform="translate(160.6392,120.4121)">
          <path
             d="m 0,0 c -0.039,-0.278 -0.219,-0.375 -0.478,-0.372 -0.138,0.001 -0.276,0 -0.415,0 h -84.645 c -0.624,0 -0.624,0 -1.034,0.261 v 11.685 c 0.218,0.261 0.496,0.315 0.831,0.314 28.327,-0.007 56.655,-0.006 84.983,-0.006 0.1,0 0.201,-0.003 0.301,-10e-4 0.249,0.005 0.407,-0.104 0.448,-0.358 -0.002,-0.05 -0.007,-0.1 -0.007,-0.15 0,-3.691 0,-7.383 0,-11.073 C -0.016,0.2 -0.005,0.1 0,0"
             style="fill:#2e3f59;fill-opacity:1;fill-rule:nonzero;stroke:none"
             id="path4590"
             inkscape:connector-curvature="0" />
        </g>
        <g
           id="g4592"
           transform="translate(109.3994,118.7178)">
          <path
             d="m 0,0 h 41.762 c 0.011,-0.047 0.034,-0.092 0.033,-0.138 -0.005,-0.841 0.017,-1.683 -0.028,-2.522 -0.103,-1.91 -0.244,-3.817 -0.493,-5.715 -0.417,-3.173 -1.081,-6.29 -2.047,-9.342 -0.77,-2.431 -1.722,-4.789 -2.872,-7.065 -0.895,-1.771 -1.874,-3.493 -3.025,-5.114 -1.553,-2.183 -3.463,-3.996 -5.686,-5.482 -1.283,-0.857 -2.583,-1.691 -3.859,-2.56 -2.255,-1.533 -4.264,-3.342 -5.991,-5.456 -1.072,-1.312 -1.717,-2.809 -1.884,-4.512 -0.155,-1.589 0.103,-3.118 0.573,-4.624 0.593,-1.901 1.49,-3.667 2.412,-5.422 0.35,-0.667 0.698,-1.334 1.045,-2.002 0.05,-0.096 0.088,-0.198 0.152,-0.343 h -0.33 c -1.307,0 -2.614,0.004 -3.92,-0.003 -0.2,-0.001 -0.362,0.04 -0.508,0.185 -1.915,1.893 -3.696,3.896 -5.054,6.242 -0.977,1.687 -1.671,3.479 -1.942,5.416 -0.182,1.309 -0.161,2.622 0.021,3.934 0.318,2.288 1.063,4.452 1.881,6.596 0.822,2.156 1.663,4.303 2.459,6.467 0.671,1.824 1.189,3.697 1.544,5.608 0.113,0.613 0.131,1.244 0.19,1.866 0.021,0.223 0.049,0.448 0.048,0.673 -0.002,2.128 -0.312,4.215 -0.916,6.255 -1.196,4.04 -3.196,7.646 -5.923,10.85 -1.703,2.001 -3.633,3.747 -5.86,5.15 C 1.222,-0.704 0.643,-0.38 0,0"
             style="fill:#2e3f59;fill-opacity:1;fill-rule:nonzero;stroke:none"
             id="path4594"
             inkscape:connector-curvature="0" />
        </g>
        <g
           id="g4596"
           transform="translate(160.6499,109.8975)">
          <path
             d="m 0,0 c -0.127,-0.108 -0.266,-0.16 -0.44,-0.159 -2.768,0.005 -5.535,0.003 -8.302,0.004 -0.061,0 -0.123,0.009 -0.226,0.015 0.402,2.991 0.588,5.979 0.602,9.011 0.127,0.012 0.234,0.029 0.341,0.029 2.516,0.002 5.031,-0.001 7.547,0.005 0.186,0 0.342,-0.037 0.478,-0.16 z"
             style="fill:#ea5756;fill-opacity:1;fill-rule:nonzero;stroke:none"
             id="path4598"
             inkscape:connector-curvature="0" />
        </g>
        <g
           id="g4600"
           transform="translate(117.7793,109.7588)">
          <path
             d="m 0,0 c -0.166,-0.007 -0.286,-0.017 -0.407,-0.017 -14.229,-10e-4 -28.458,-10e-4 -42.688,-10e-4 -0.088,0 -0.176,-0.005 -0.264,0.003 -0.218,0.022 -0.309,0.113 -0.333,0.333 -0.01,0.087 -0.005,0.176 -0.005,0.264 v 7.875 c 0,0.063 -0.003,0.126 0.001,0.189 0.019,0.288 0.107,0.378 0.391,0.393 0.113,0.006 0.226,10e-4 0.34,10e-4 10.341,0 20.683,-10e-4 31.025,0.005 0.412,0 0.791,-0.079 1.171,-0.228 C -8.797,8.051 -6.996,6.989 -5.337,5.684 -3.342,4.112 -1.619,2.277 -0.131,0.221 -0.09,0.164 -0.059,0.101 0,0"
             style="fill:#ea5756;fill-opacity:1;fill-rule:nonzero;stroke:none"
             id="path4602"
             inkscape:connector-curvature="0" />
        </g>
        <g
           id="g4604"
           transform="translate(160.644,99.3438)">
          <path
             d="m 0,0 c -0.097,-0.164 -0.23,-0.236 -0.432,-0.235 -3.633,0.005 -7.266,0.004 -10.9,0.005 -0.036,0 -0.073,0.012 -0.132,0.023 0.396,1.343 0.822,2.671 1.177,4.018 0.353,1.34 0.636,2.701 0.954,4.072 0.092,0.007 0.19,0.02 0.288,0.02 2.841,0.001 5.683,-10e-4 8.524,0.004 0.212,0 0.398,-0.023 0.521,-0.218 z"
             style="fill:#ea5756;fill-opacity:1;fill-rule:nonzero;stroke:none"
             id="path4606"
             inkscape:connector-curvature="0" />
        </g>
        <g
           id="g4608"
           transform="translate(122.4233,99.1113)">
          <path
             d="m 0,0 h -0.444 -47.227 c -0.655,0 -0.688,0.033 -0.688,0.674 v 6.784 c 0,0.051 -10e-4,0.101 0,0.151 0.007,0.443 0.088,0.527 0.534,0.527 3.259,0.001 32.781,0.001 44.283,0.001 0.075,0 0.152,-0.009 0.226,0.002 0.218,0.03 0.344,-0.066 0.448,-0.256 C -2.175,6.614 -1.564,5.308 -1.061,3.952 -0.633,2.8 -0.286,1.622 -0.042,0.415 -0.025,0.329 -0.006,0.243 0.006,0.157 0.012,0.121 0.004,0.083 0,0"
             style="fill:#ea5756;fill-opacity:1;fill-rule:nonzero;stroke:none"
             id="path4610"
             inkscape:connector-curvature="0" />
        </g>
        <g
           id="g4612"
           transform="translate(160.6553,89.0908)">
          <path
             d="m 0,0 c -0.093,-0.109 -0.198,-0.187 -0.354,-0.171 -0.087,0.01 -0.176,0.002 -0.265,0.002 h -15.404 -0.485 c 0.208,0.424 0.47,0.755 0.675,1.117 0.211,0.371 0.44,0.732 0.652,1.102 0.213,0.37 0.418,0.745 0.621,1.12 0.203,0.376 0.403,0.753 0.596,1.134 0.193,0.381 0.38,0.764 0.562,1.15 0.183,0.384 0.358,0.773 0.542,1.172 0.117,0.007 0.228,0.019 0.339,0.019 4.003,0.001 8.005,0 12.007,0.002 0.194,0 0.376,-0.003 0.514,-0.164 z"
             style="fill:#ee7b3c;fill-opacity:1;fill-rule:nonzero;stroke:none"
             id="path4614"
             inkscape:connector-curvature="0" />
        </g>
        <g
           id="g4616"
           transform="translate(122.8032,95.7363)">
          <path
             d="m 0,0 c 0.037,-2.394 -0.613,-4.588 -1.279,-6.814 h -0.428 -46.397 c -0.075,0 -0.15,-0.004 -0.226,0.001 -0.285,0.016 -0.372,0.104 -0.389,0.394 -0.006,0.087 -0.002,0.176 -0.002,0.264 v 5.501 c 0,0.113 -0.003,0.226 0.007,0.339 0.017,0.188 0.126,0.295 0.317,0.31 0.1,0.008 0.201,0.005 0.301,0.005 h 47.643 z"
             style="fill:#ee7b3c;fill-opacity:1;fill-rule:nonzero;stroke:none"
             id="path4618"
             inkscape:connector-curvature="0" />
        </g>
        <g
           id="g4620"
           transform="translate(160.6274,78.9141)">
          <path
             d="m 0,0 c -0.14,-0.163 -0.266,-0.182 -0.529,-0.208 -0.075,0.008 -0.151,0.001 -0.227,0.001 h -27.132 -0.519 c 0.099,0.106 0.143,0.174 0.204,0.216 1.284,0.882 2.561,1.773 3.858,2.636 1.141,0.758 2.286,1.509 3.34,2.388 0.186,0.155 0.378,0.218 0.617,0.218 6.604,-0.004 13.207,-0.004 19.811,0 0.224,0 0.414,-0.048 0.577,-0.2 z"
             style="fill:#ee7b3c;fill-opacity:1;fill-rule:nonzero;stroke:none"
             id="path4622"
             inkscape:connector-curvature="0" />
        </g>
        <g
           id="g4624"
           transform="translate(74.0464,79.0117)">
          <path
             d="M 0,0 C 0.001,1.617 0.002,3.233 0.002,4.85 0.083,5.069 0.251,5.151 0.474,5.149 0.575,5.148 0.675,5.15 0.776,5.15 h 44.421 0.507 C 45.653,4.98 45.625,4.854 45.578,4.732 45.135,3.586 44.685,2.441 44.246,1.294 44.08,0.86 43.925,0.422 43.788,-0.021 c -0.068,-0.221 -0.187,-0.311 -0.41,-0.285 -0.062,0.007 -0.126,0.001 -0.189,0.001 H 0.73 C 0.655,-0.305 0.579,-0.3 0.504,-0.306 0.262,-0.323 0.089,-0.231 0,0"
             style="fill:#ee7b3c;fill-opacity:1;fill-rule:nonzero;stroke:none"
             id="path4626"
             inkscape:connector-curvature="0" />
        </g>
        <g
           id="g4628"
           transform="translate(74.0562,72.8076)">
          <path
             d="M 0,0 C 0.19,0.267 0.595,0.217 0.927,0.217 14.629,0.212 28.331,0.213 42.033,0.213 h 0.525 c -0.086,-1.529 0.059,-2.991 0.4,-4.457 -0.128,-0.02 -0.21,-0.037 -0.292,-0.043 -0.088,-0.007 -0.176,-0.002 -0.265,-0.002 -13.865,0 -27.731,10e-4 -41.596,-0.004 -0.297,0 -0.632,-0.019 -0.805,0.222 z"
             style="fill:#fdd35e;fill-opacity:1;fill-rule:nonzero;stroke:none"
             id="path4630"
             inkscape:connector-curvature="0" />
        </g>
        <g
           id="g4632"
           transform="translate(143.4561,68.5186)">
          <path
             d="m 0,0 h -16.476 c -0.1,0 -0.201,0.004 -0.301,0 -0.165,-0.007 -0.251,0.061 -0.275,0.233 -0.195,1.384 -0.027,2.721 0.488,4.019 0.068,0.172 0.17,0.271 0.366,0.251 0.075,-0.008 0.151,-0.001 0.226,-0.001 h 32.386 c 0.729,0 0.734,-0.006 0.734,-0.736 0,-1.055 0,-2.111 0,-3.165 C 17.147,0.035 17.112,0 16.551,0 Z"
             style="fill:#fdd35e;fill-opacity:1;fill-rule:nonzero;stroke:none"
             id="path4634"
             inkscape:connector-curvature="0" />
        </g>
        <g
           id="g4636"
           transform="translate(160.6577,58.6348)">
          <path
             d="M 0,0 C -0.106,-0.142 -0.255,-0.196 -0.425,-0.203 -0.55,-0.209 -0.676,-0.207 -0.802,-0.207 h -28.626 c -0.101,0 -0.202,0.004 -0.302,0 -0.172,-0.007 -0.275,0.073 -0.354,0.226 -0.52,1.003 -1.046,2.002 -1.568,3.005 -0.039,0.075 -0.101,0.182 -0.14,0.291 0.111,0.016 0.235,0.007 0.317,0.014 0.063,0.006 0.126,0.002 0.189,0.002 10.247,0 20.494,0 30.741,-10e-4 0.198,0 0.408,0.04 0.545,-0.164 z"
             style="fill:#fdd35e;fill-opacity:1;fill-rule:nonzero;stroke:none"
             id="path4638"
             inkscape:connector-curvature="0" />
        </g>
        <g
           id="g4640"
           transform="translate(123.2183,58.4277)">
          <path
             d="m 0,0 h -0.368 -48.085 c -0.063,0 -0.126,-0.002 -0.189,0.001 -0.417,0.02 -0.509,0.111 -0.51,0.52 -0.003,0.854 -0.004,1.708 0,2.563 0.002,0.397 0.059,0.447 0.467,0.453 0.088,0.002 0.176,10e-4 0.264,10e-4 14.984,0 29.967,-0.002 44.951,0.011 0.403,0 0.63,-0.138 0.871,-0.435 C -1.957,2.327 -1.274,1.572 -0.606,0.806 -0.394,0.562 -0.174,0.324 0.042,0.083 0.028,0.056 0.014,0.028 0,0"
             style="fill:#fdd35e;fill-opacity:1;fill-rule:nonzero;stroke:none"
             id="path4642"
             inkscape:connector-curvature="0" />
        </g>
      </g>
    </g>
  </g>
</svg>
